HIERARCHY
ROOT Hips
{
  OFFSET 0 0 0
  CHANNELS 6 Xposition Yposition Zposition Zrotation Xrotation Yrotation
  JOINT Spine
  {
    OFFSET 0 8.18577 0
    CHANNELS 3 Zrotation Xrotation Yrotation
    JOINT Spine1
    {
      OFFSET 0 23.9492 0
      CHANNELS 3 Zrotation Xrotation Yrotation
      JOINT Neck
      {
        OFFSET 0 23.8508 2.16826
        CHANNELS 3 Zrotation Xrotation Yrotation
        JOINT Head
        {
          OFFSET 0 13.9757 -1.99653
          CHANNELS 3 Zrotation Xrotation Yrotation
          End Site
          {
            OFFSET 0 24.9566 0
          }
        }
      }
      JOINT LeftShoulder
      {
        OFFSET 3.97939 22.162 -0.249083
        CHANNELS 3 Zrotation Xrotation Yrotation
        JOINT LeftArm
        {
          OFFSET 10.8129 0 0
          CHANNELS 3 Zrotation Xrotation Yrotation
          JOINT LeftForeArm
          {
            OFFSET 31.6972 0 0
            CHANNELS 3 Zrotation Xrotation Yrotation
            JOINT LeftHand
            {
              OFFSET 27.0474 0 0
              CHANNELS 3 Zrotation Xrotation Yrotation
              End Site
              {
                OFFSET 14.974 0 0
              }
            }
          }
        }
      }
      JOINT RightShoulder
      {
        OFFSET -4.00645 22.162 -0.249083
        CHANNELS 3 Zrotation Xrotation Yrotation
        JOINT RightArm
        {
          OFFSET -10.8129 0 0
          CHANNELS 3 Zrotation Xrotation Yrotation
          JOINT RightForeArm
          {
            OFFSET -31.6972 0 0
            CHANNELS 3 Zrotation Xrotation Yrotation
            JOINT RightHand
            {
              OFFSET -27.0474 0 0
              CHANNELS 3 Zrotation Xrotation Yrotation
              End Site
              {
                OFFSET -14.974 0 0
              }
            }
          }
        }
      }
    }
  }
  JOINT LeftUpLeg
  {
    OFFSET 9.98265 0 0
    CHANNELS 3 Zrotation Xrotation Yrotation
    JOINT LeftLeg
    {
      OFFSET 0 -38.5116 0
      CHANNELS 3 Zrotation Xrotation Yrotation
      JOINT LeftFoot
      {
        OFFSET 0 -44.7893 0
        CHANNELS 3 Zrotation Xrotation Yrotation
        JOINT LeftToeBase
        {
          OFFSET 0 -6.48872 14.974
          CHANNELS 3 Zrotation Xrotation Yrotation
          End Site
          {
            OFFSET 0 0 3.99306
          }
        }
      }
    }
  }
  JOINT RightUpLeg
  {
    OFFSET -9.98265 0 0
    CHANNELS 3 Zrotation Xrotation Yrotation
    JOINT RightLeg
    {
      OFFSET 0 -38.5116 0
      CHANNELS 3 Zrotation Xrotation Yrotation
      JOINT RightFoot
      {
        OFFSET 0 -44.7893 0
        CHANNELS 3 Zrotation Xrotation Yrotation
        JOINT RightToeBase
        {
          OFFSET 0 -6.48872 14.974
          CHANNELS 3 Zrotation Xrotation Yrotation
          End Site
          {
            OFFSET 0 0 3.99306
          }
        }
      }
    }
  }
}
MOTION
Frames:	12
Frame Time:	0.00833333
-68.7764 95.5164 4.43462 0.597171 -3.73336 -179.985 1.62746 -10.8099 0.232592 -0.151576 -0.237434 0.0790842 -2.89757 20.5861 -10.1522 10.2801 0.971848 -9.32246 15.3538 0.144565 0.515203 -13.6697 6.23119 -2.13924 6.01796 4.3845 -0.298533 -13.7693 4.14495 2.11957 -17.1174 -2.19208 -0.108342 18.6287 -5.70285 1.12935 0.349912 11.7933 7.6612 -20.361 13.8817 -12.0134 5.09606 0.0557121 4.01964 -0.992542 5.6674 5.36359 -5.26812 -2.55988 10.9563 3.97569e-016 0 -0 0.597133 -3.95517 -8.64315 -2.65039 5.05447 -1.00144 4.52106 1.84493 -17.4176 0 0 -3.18055e-015 
-68.7768 95.5136 4.44491 0.591272 -3.75013 -179.97 1.61618 -10.833 0.224586 -0.141433 -0.198455 0.0709308 -2.89326 20.5832 -10.1426 10.268 0.981683 -9.31458 15.3166 0.161601 0.520087 -13.7519 6.26813 -2.12525 6.03839 4.01418 -0.441545 -13.5419 3.80727 1.94265 -17.1715 -2.23288 -0.120596 18.7921 -5.93848 1.17835 0.245491 11.9201 7.59769 -20.2691 13.9759 -11.8491 5.09021 0.0166439 4.00385 -0.992242 5.68643 5.36901 -5.26774 -2.56128 10.9474 -0 -1.59028e-015 -0 0.589706 -3.98344 -8.63849 -2.71576 5.1183 -0.64864 4.61793 1.71598 -17.6063 -3.97569e-016 7.95139e-016 3.18055e-015 
-68.7771 95.5106 4.45822 0.581256 -3.7737 -179.951 1.59813 -10.8654 0.216658 -0.126219 -0.152261 0.0648414 -2.862 20.6158 -10.1832 10.2266 0.946585 -9.35904 15.2739 0.178038 0.510321 -13.8552 6.35808 -2.11421 6.194 4.0009 -0.553199 -13.6834 3.79898 1.93639 -17.1713 -2.24837 -0.122471 18.8104 -5.71725 1.1023 0.252205 11.7587 7.78511 -20.35 13.8352 -11.9165 5.07928 -0.036505 3.98878 -0.990079 5.71679 5.34362 -5.26315 -2.56881 10.9739 0 7.95139e-016 -0 0.572357 -4.01236 -8.66371 -2.7265 5.13299 -0.54602 4.65951 1.674 -17.6637 3.97569e-016 7.95139e-016 -6.36111e-015 
-68.7776 95.5075 4.46994 0.578245 -3.79263 -179.923 1.57348 -10.8959 0.20724 -0.0929412 -0.0999389 0.0568169 -2.83365 20.5734 -10.1858 10.1697 1.00873 -9.37244 15.2242 0.178731 0.50708 -13.9593 6.40336 -2.1207 6.25491 4.16949 -0.701625 -13.7173 3.96599 2.01479 -17.1795 -2.24965 -0.143857 18.9255 -5.50899 1.07607 0.057652 11.6223 7.92172 -20.258 13.7054 -11.9297 5.07807 -0.0789695 3.98754 -0.989426 5.73649 5.32342 -5.26381 -2.57669 10.9623 3.97569e-016 0 -3.18055e-015 0.564199 -4.04361 -8.68604 -2.66139 5.08987 -0.92668 4.53082 1.78899 -17.4793 0 7.95139e-016 -0 
-68.7814 95.504 4.48369 0.573876 -3.81757 -179.909 1.56887 -10.9357 0.203738 -0.0882313 -0.0326566 0.0532819 -2.79971 20.6383 -10.234 10.1621 0.878547 -9.41278 15.1966 0.196673 0.491126 -14.1009 6.45714 -2.10128 6.36901 3.87644 -0.908526 -13.8129 3.67256 2.10409 -17.1842 -2.24872 -0.166701 19.0336 -5.44149 1.06489 -0.0702928 11.5676 8.03949 -20.1323 13.6602 -12.0073 5.07007 -0.134799 3.99131 -0.983029 5.77476 5.30549 -5.27505 -2.60463 10.9603 -3.97569e-016 -7.95139e-016 -9.54166e-015 0.558646 -4.08347 -8.69479 -2.64795 5.088 -0.99387 4.4566 1.81352 -17.4447 3.97569e-016 -7.95139e-016 -3.18055e-015 
-68.7865 95.5004 4.49824 0.575743 -3.84086 -179.883 1.55447 -10.9716 0.190777 -0.0584732 0.0250702 0.0430613 -2.79383 20.6615 -10.251 10.1638 0.837433 -9.42706 15.1373 0.210759 0.48268 -14.2447 6.49254 -2.07972 6.55906 3.84895 -1.12044 -14.141 3.64034 2.20283 -17.1715 -2.24239 -0.165588 19.0514 -5.54977 1.0223 -0.0126637 11.5809 8.16974 -20.2484 13.6899 -12.054 5.06817 -0.191035 3.99911 -0.975351 5.80539 5.27532 -5.26776 -2.6142 10.9599 3.97569e-016 7.95139e-016 6.36111e-015 0.551048 -4.12519 -8.71476 -2.71041 5.17482 -0.592397 4.60498 1.66074 -17.6609 0 1.59028e-015 -0 
-68.7911 95.4975 4.51323 0.573596 -3.86677 -179.865 1.52053 -10.9983 0.185563 -0.00244888 0.0576822 0.0412099 -2.77798 20.6022 -10.23 10.0955 0.949244 -9.42174 15.0522 0.251926 0.452924 -14.4027 6.539 -2.04246 6.64935 3.83101 -1.36332 -14.0971 3.62018 2.34922 -17.1533 -2.22938 -0.178701 19.1278 -5.30844 0.955727 -0.175415 11.4928 8.36218 -20.1951 13.6099 -12.0615 5.06287 -0.241131 4.00783 -0.974399 5.82869 5.24233 -5.2615 -2.62539 10.9582 3.97569e-016 -7.95139e-016 6.36111e-015 0.553307 -4.14138 -8.52566 -2.71955 5.15634 -0.752538 4.64954 1.6523 -17.6782 1.32417e-031 2.38542e-015 -3.18055e-015 
-68.7972 95.4933 4.52841 0.569915 -3.89002 -179.85 1.50623 -11.0573 0.172567 0.0434085 0.166945 0.0262506 -2.82283 20.5383 -10.2218 10.1056 1.00308 -9.41672 14.9813 0.281219 0.450512 -14.609 6.59872 -1.98248 6.84074 3.54962 -1.64096 -14.3486 3.344 2.41546 -17.2051 -2.24502 -0.187911 19.2293 -5.54805 0.956252 -0.106358 11.5586 8.45579 -20.2506 13.6771 -12.0675 5.06074 -0.290661 4.00651 -0.978485 5.85552 5.24293 -5.24513 -2.63482 10.9555 3.97569e-016 -7.95139e-016 3.18055e-015 0.546914 -4.17497 -8.50407 -2.71631 5.16509 -0.751453 4.6085 1.63542 -17.7071 0 0 -3.18055e-015 
-68.8066 95.4888 4.54677 0.56892 -3.9272 -179.828 1.47878 -11.1035 0.162174 0.100344 0.232449 0.0191015 -2.82513 20.5184 -10.235 10.0858 0.998063 -9.43218 14.898 0.335464 0.440101 -14.8127 6.59694 -1.94501 6.93044 3.48378 -1.93418 -14.3054 3.27685 2.58478 -17.2388 -2.26126 -0.213877 19.4712 -5.27182 0.919786 -0.44251 11.3792 8.65044 -20.1882 13.535 -12.1667 5.04724 -0.357033 4.01049 -0.969166 5.88143 5.21395 -5.23827 -2.64843 10.9521 3.97569e-016 0 -0 0.537581 -4.22831 -8.51142 -2.71191 5.18143 -0.758428 4.58362 1.62442 -17.6977 4.41391e-032 7.95139e-016 -3.18055e-015 
-68.8142 95.486 4.5675 0.567839 -3.9626 -179.817 1.47654 -11.1627 0.156881 0.11794 0.326824 0.0137198 -2.7761 20.4831 -10.2421 10.0149 0.992792 -9.44563 14.8373 0.393543 0.443954 -15.0693 6.65313 -1.88461 7.1455 3.32125 -2.29839 -14.4718 3.11659 2.74434 -17.2384 -2.29626 -0.213931 19.6654 -5.18359 0.840608 -0.696298 11.39 8.85381 -19.9729 13.5451 -12.1819 5.04481 -0.422877 4.03832 -0.962715 5.90745 5.17429 -5.2412 -2.66107 10.9497 3.97569e-016 0 -0 0.526288 -4.28585 -8.53681 -2.71742 5.2068 -0.682005 4.63542 1.59829 -17.7479 3.97569e-016 -7.95139e-016 3.18055e-015 
-68.8245 95.4824 4.58404 0.566036 -3.99105 -179.792 1.45541 -11.2535 0.13139 0.166121 0.492503 -0.0111969 -2.79069 20.3737 -10.2266 10.0035 1.05758 -9.43415 14.7419 0.450643 0.493956 -15.3424 6.83851 -1.83326 7.35656 2.92656 -2.69556 -14.4526 2.73644 2.86788 -17.2857 -2.3523 -0.208254 19.9049 -5.14744 0.753347 -0.885775 11.2665 9.13196 -20.0417 13.4724 -12.332 5.03432 -0.482194 4.03611 -0.954493 5.93776 5.13895 -5.22207 -2.67302 10.9566 7.95139e-016 0 6.36111e-015 0.517082 -4.33209 -8.55515 -2.72147 5.22257 -0.687231 4.61388 1.58371 -17.7515 3.97569e-016 -1.59028e-015 6.36111e-015 
-68.8357 95.4785 4.60531 0.562254 -4.03289 -179.786 1.4452 -11.3701 0.109556 0.218028 0.686282 -0.0354662 -2.85523 20.2682 -10.2171 10.0366 1.09311 -9.4225 14.5856 0.533147 0.575313 -15.5596 6.93544 -1.81592 7.49556 2.94843 -3.06709 -14.4462 2.75968 3.07583 -17.3859 -2.43835 -0.173129 20.1694 -5.30579 0.620832 -1.00423 11.3021 9.45208 -20.021 13.5209 -12.3527 5.01961 -0.548741 4.03049 -0.943352 5.9576 5.16731 -5.2293 -2.68769 10.9124 -3.97569e-016 7.95139e-016 3.18055e-015 0.507783 -4.40536 -8.51742 -2.72689 5.25057 -0.754886 4.62767 1.5916 -17.7312 3.97569e-016 7.95139e-016 -9.54166e-015 
